<svg xmlns="http://www.w3.org/2000/svg" xmlns:xlink="http://www.w3.org/1999/xlink" width="200" height="200" x="0" y="0" enable-background="new 0 0 200 200" version="1.1" viewBox="0 0 200 200" xml:space="preserve"><style type="text/css">.st0,.st1{fill:none;stroke:#d7dce0;stroke-width:4;stroke-miterlimit:10}.st1{stroke:#a84d54}.st2{opacity:0;fill:#fff}.st3{fill:#223443}.st4,.st5{fill:#fff;stroke:#223443;stroke-width:4;stroke-miterlimit:10}.st5{fill:none}</style><g id="cd-loading"><g id="cd-circle"><circle id="cd-loading-circle" cx="100" cy="100" r="77.5" class="st0"/><circle id="cd-loading-circle-filled" cx="100" cy="100" r="77.5" class="st1"/></g><g id="cd-play-btn"><rect width="32" height="43.9" x="84" y="78.1" class="st2"/><polygon points="84 78.1 116 100 84 121.9" class="st3"/></g><g id="cd-pause-btn"><rect width="38" height="39.9" x="81" y="80.1" class="st2"/><rect width="11" height="39.9" x="81" y="80.1" class="st3"/><rect width="11" height="39.9" x="108" y="80.1" class="st3"/></g></g><g id="cd-buildings"><g id="cd-home-3"><rect id="cd-home-3-base" width="58" height="123" x="66" y="55" class="st4"/><polygon id="cd-home-3-roof" points="59.4 56 95 15 130.6 56" class="st4"/><circle id="cd-home-3-window" cx="95" cy="77" r="11" class="st4"/></g><g id="cd-home-2"><rect id="cd-home-2-base" width="69" height="46" x="98" y="132" class="st4"/><rect id="cd-home-2-roof" width="69" height="10" x="98" y="122" class="st4"/><rect id="cd-home-2-door" width="15" height="22" x="141" y="155" class="st4"/><rect id="cd-home-2-window" width="25" height="9" x="106" y="143" class="st4"/></g><g id="cd-home-1"><rect id="cd-home-1-base" width="69" height="69" x="29" y="109" class="st4"/><rect id="cd-home-1-roof" width="80" height="9" x="23" y="100" class="st4"/><rect id="cd-home-1-door" width="20" height="27" x="53" y="151" class="st4"/><rect id="cd-home-1-window" width="20" height="18" x="53" y="121" class="st4"/><rect id="cd-home-1-chimney" width="11" height="11" x="34" y="89" class="st4"/></g><line id="cd-floor" x1="2" x2="198" y1="178" y2="178" class="st5"/><g id="cd-cloud-1"><line x1="5" x2="29" y1="13" y2="13" class="st0"/><line x1="35" x2="44" y1="13" y2="13" class="st0"/><line x1="72" x2="14" y1="27" y2="27" class="st0"/></g><g id="cd-cloud-2"><line x1="191" x2="159" y1="68" y2="68" class="st0"/><line x1="153" x2="144" y1="68" y2="68" class="st0"/><line x1="179" x2="133" y1="83" y2="83" class="st0"/></g></g></svg>